<?xml version="1.0" encoding="utf-8"?>
<!-- Generator: Adobe Illustrator 18.1.0, SVG Export Plug-In . SVG Version: 6.00 Build 0)  -->
<svg version="1.1" id="Calque_1" xmlns="http://www.w3.org/2000/svg" xmlns:xlink="http://www.w3.org/1999/xlink" x="0px" y="0px"
	 viewBox="0 0 125.9 130.4" enable-background="new 0 0 125.9 130.4" xml:space="preserve">
<path id="test" fill="#3C3C3B" d="M121.3,49.8c0.2-1.8,0.2-3.7,0-5.6l-5.4-1.1c-0.2-1.6-0.5-3.1-0.9-4.6l4.5-3.3c-0.6-1.7-1.3-3.4-2.2-5
	l-5.4,1.2c-0.8-1.4-1.8-2.7-2.8-4l2.8-4.8c-1.2-1.3-2.6-2.5-4-3.6l-4.4,3.3c-1.4-1-2.8-1.8-4.3-2.5l0.6-5.5
	c-1.6-0.7-3.3-1.2-5.1-1.7l-2.7,4.8c-1.6-0.3-3.3-0.5-5.1-0.5l-1.7-5.3c-0.9,0-1.8,0.1-2.7,0.2c-0.9,0.1-1.8,0.2-2.6,0.4l-0.5,5.5
	c-1.7,0.4-3.3,0.9-4.8,1.6l-3.7-4.1c-1.6,0.8-3.1,1.7-4.6,2.7l1.8,5.2c-1.3,1-2.5,2.2-3.7,3.4l-5-2.3c-1.1,1.4-2.2,2.9-3.1,4.4
	l3.8,4.1c-0.7,1.4-1.4,2.9-1.9,4.5l-5.5,0c-0.5,1.7-0.8,3.5-1,5.4l5.1,2.2c-0.1,1.5-0.1,3.1,0.1,4.7l-5,2.2c0.3,1.9,0.7,3.7,1.3,5.4
	l5.6-0.1c0.5,1.4,1.2,2.8,1.9,4.1l-3.7,4.1c1,1.6,2.2,3.1,3.4,4.5l5-2.3c1,1,2.1,2,3.3,2.8l-1.7,5.2c1.6,1.1,3.2,2,5,2.8l3.7-4.2
	c1.3,0.5,2.7,0.9,4,1.3l0.6,5.5c1.9,0.3,3.8,0.5,5.7,0.5l1.6-5.3c0.7,0,1.4-0.1,2.1-0.1c0.7-0.1,1.4-0.2,2.1-0.3l2.8,4.8
	c1.9-0.4,3.7-1,5.5-1.8l-0.7-5.5c1.3-0.6,2.5-1.3,3.7-2.1l4.5,3.3c1.5-1.2,2.9-2.4,4.3-3.8L109,66c0.9-1.1,1.8-2.3,2.6-3.5l5.4,1.2
	c0.9-1.6,1.7-3.4,2.3-5.1l-4.5-3.2c0.4-1.4,0.8-2.9,1-4.4L121.3,49.8z M88.2,61.4c-8.2,0.9-15.5-5-16.5-13.2
	c-0.9-8.2,5-15.5,13.2-16.5s15.5,5,16.5,13.2C102.2,53.1,96.3,60.5,88.2,61.4z"/>
<path fill="#3C3C3B" d="M63.3,101.6c0.8-1,1.5-2.1,2.1-3.2l-2.8-2.7c0.5-1,0.9-2,1.2-3l3.9-0.2c0.3-1.2,0.5-2.5,0.6-3.8l-3.6-1.3
	c0-1.1,0-2.3-0.2-3.4l3.4-1.8c-0.2-1.2-0.6-2.4-1-3.6l-3.8,0.3c-0.4-1.1-1-2.1-1.6-3.1l2.4-3c-0.7-1-1.5-2-2.3-2.9l-3.4,1.8
	c-0.8-0.8-1.8-1.5-2.8-2.2l1-3.7c-0.5-0.3-1.1-0.6-1.6-0.9c-0.6-0.3-1.1-0.5-1.7-0.8l-2.4,3c-1.1-0.4-2.3-0.7-3.4-0.9l-0.6-3.8
	c-1.2-0.1-2.5-0.2-3.7-0.1l-0.9,3.7c-1.2,0.1-2.3,0.3-3.4,0.6l-2.1-3.2c-1.2,0.4-2.4,0.9-3.5,1.4l0.7,3.8c-1,0.6-1.9,1.2-2.8,1.9
	l-3.2-2.1c-0.9,0.8-1.8,1.8-2.6,2.8l2.2,3.2c-0.6,0.9-1.2,1.8-1.7,2.8l-3.8-0.6c-0.5,1.2-1,2.4-1.3,3.7l3.3,2.1
	c-0.2,1-0.4,2.1-0.4,3.1l-3.7,1c0,1.3,0.1,2.6,0.3,3.9l3.8,0.5c0.2,1,0.5,2,0.9,2.9l-3,2.4c0.5,1.2,1.2,2.4,1.9,3.5l3.7-1.1
	c0.6,0.8,1.2,1.6,1.9,2.3l-1.7,3.4c1,0.9,2,1.7,3.2,2.5l3-2.5c0.4,0.2,0.8,0.5,1.3,0.7c0.4,0.2,0.9,0.4,1.3,0.6l-0.2,3.9
	c1.3,0.5,2.6,0.8,3.9,1l1.7-3.5c1,0.1,2,0.2,3,0.1l1.4,3.6c1.3-0.1,2.6-0.3,3.9-0.6l0.1-3.8c1-0.3,1.9-0.6,2.8-1.1l2.7,2.7
	c1.2-0.6,2.3-1.3,3.3-2.1l-1.4-3.6c0.8-0.7,1.5-1.4,2.2-2.2L63.3,101.6z M39.5,95.9c-5.1-2.6-7.2-8.8-4.7-13.9
	c2.6-5.1,8.8-7.2,13.9-4.7c5.1,2.6,7.2,8.8,4.7,13.9C50.8,96.3,44.6,98.4,39.5,95.9z"/>
<path fill="#3C3C3B" d="M40.7,38.2c0.3-0.7,0.5-1.5,0.7-2.3l-2.1-1.1c0.1-0.7,0.2-1.3,0.2-2l2.3-0.8c0-0.8-0.1-1.6-0.3-2.3l-2.4-0.2
	c-0.2-0.7-0.4-1.3-0.7-2l1.7-1.6c-0.3-0.7-0.7-1.4-1.2-2l-2.2,0.8c-0.4-0.6-0.9-1.1-1.5-1.6l0.9-2.2c-0.6-0.5-1.2-0.9-1.9-1.3
	l-1.7,1.6c-0.6-0.3-1.3-0.6-2-0.8l0-2.4c-0.4-0.1-0.7-0.2-1.1-0.3c-0.4-0.1-0.8-0.1-1.1-0.2l-0.9,2.2c-0.7,0-1.5,0-2.2,0.1l-1-2.1
	c-0.8,0.1-1.5,0.3-2.2,0.5l0.1,2.4c-0.7,0.3-1.3,0.6-1.9,0.9l-1.8-1.6c-0.6,0.4-1.3,0.9-1.8,1.4l1,2.1c-0.5,0.5-0.9,1-1.3,1.6
	l-2.3-0.7c-0.4,0.7-0.8,1.4-1.1,2.1l1.8,1.5c-0.2,0.6-0.4,1.3-0.5,1.9L12,30.5c-0.1,0.8-0.2,1.6-0.2,2.4l2.3,0.7
	c0,0.7,0.1,1.3,0.3,1.9l-2,1.2c0.2,0.8,0.5,1.5,0.8,2.3l2.4-0.3c0.3,0.5,0.6,1.1,1,1.6l-1.4,1.9c0.5,0.6,1.1,1.2,1.7,1.8l2-1.3
	c0.5,0.4,1,0.7,1.5,1L19.9,46c0.7,0.4,1.5,0.7,2.3,0.9l1.3-2c0.3,0.1,0.6,0.1,0.9,0.2c0.3,0.1,0.6,0.1,0.9,0.1l0.5,2.3
	c0.8,0.1,1.7,0,2.5,0l0.4-2.3c0.6-0.1,1.2-0.2,1.8-0.4l1.4,1.9c0.8-0.3,1.5-0.6,2.2-1l-0.6-2.3c0.5-0.3,1-0.7,1.5-1.1l2.1,1.2
	c0.6-0.6,1.1-1.2,1.6-1.8l-1.5-1.9c0.4-0.5,0.7-1.1,1-1.7L40.7,38.2z M25.6,38.8c-3.5-0.6-5.8-4-5.1-7.5c0.6-3.5,4-5.8,7.5-5.1
	s5.8,4,5.1,7.5C32.4,37.2,29.1,39.5,25.6,38.8z"/>
<path fill="#3C3C3B" d="M118.9,114.7c0.5-1,1-2,1.4-3l-2.7-1.9c0.3-0.9,0.5-1.8,0.6-2.7l3.3-0.7c0.1-1.1,0.1-2.2,0-3.3l-3.2-0.6
	c-0.1-1-0.3-1.9-0.6-2.9l2.7-1.9c-0.4-1-0.8-2-1.3-3l-3.2,0.7c-0.5-0.9-1.1-1.7-1.7-2.4l1.7-2.9c-0.7-0.8-1.5-1.5-2.4-2.1l-2.6,2
	c-0.8-0.6-1.7-1.1-2.6-1.5l0.4-3.3c-0.5-0.2-1-0.4-1.5-0.5c-0.5-0.2-1-0.3-1.5-0.4l-1.6,2.9c-1-0.2-2-0.3-3-0.3l-1-3.1
	c-1.1,0-2.1,0.2-3.2,0.4l-0.3,3.3c-1,0.2-1.9,0.6-2.8,1l-2.2-2.5c-1,0.5-1.9,1-2.8,1.7l1.1,3.1c-0.8,0.6-1.5,1.3-2.1,2l-3-1.3
	c-0.7,0.8-1.3,1.7-1.9,2.7l2.3,2.4c-0.4,0.8-0.8,1.7-1.1,2.6l-3.3,0c-0.3,1.1-0.5,2.2-0.6,3.3l3.1,1.3c-0.1,0.9,0,1.8,0.1,2.7
	l-3,1.3c0.2,1.1,0.4,2.2,0.8,3.3l3.3,0c0.3,0.8,0.7,1.6,1.1,2.4l-2.2,2.4c0.6,1,1.3,1.9,2,2.7l3-1.4c0.6,0.6,1.2,1.2,1.9,1.7l-1,3.1
	c0.9,0.6,1.9,1.2,3,1.7l2.2-2.5c0.4,0.2,0.8,0.3,1.2,0.4c0.4,0.1,0.8,0.2,1.2,0.3l0.3,3.3c1.1,0.2,2.3,0.3,3.4,0.4l1-3.2
	c0.9,0,1.7-0.1,2.5-0.3l1.6,2.9c1.1-0.3,2.2-0.6,3.3-1l-0.4-3.3c0.8-0.4,1.5-0.8,2.3-1.3l2.7,2c0.9-0.7,1.7-1.4,2.5-2.2l-1.7-2.8
	c0.6-0.7,1.1-1.4,1.6-2.2L118.9,114.7z M98,112.9c-4.7-1.5-7.3-6.5-5.8-11.2c1.5-4.7,6.5-7.3,11.2-5.8c4.7,1.5,7.3,6.5,5.8,11.2
	C107.7,111.9,102.7,114.4,98,112.9z"/>
</svg>
