<?xml version="1.0" encoding="utf-8"?>
<!-- Generator: Adobe Illustrator 18.1.0, SVG Export Plug-In . SVG Version: 6.00 Build 0)  -->
<svg version="1.1" id="Calque_1" xmlns="http://www.w3.org/2000/svg" xmlns:xlink="http://www.w3.org/1999/xlink" x="0px" y="0px"
	 viewBox="0 0 123.8 150.8" enable-background="new 0 0 123.8 150.8" xml:space="preserve">
<path fill="#475764" id="rlogo" d="M117.4,95.2V23.5c0-10.2-8.4-18.6-18.6-18.6H27.1c-10.2,0-18.6,8.4-18.6,18.6v71.7v8.5v18c0,4.4,3.2,8,7,8
	c3.9,0,7-3.6,7-8v-7.9h4.5H91c0.2,0.2,0.4,0.4,0.6,0.7l12.7,12.7c3.1,3.1,7.9,3.4,10.6,0.7c2.7-2.7,2.4-7.5-0.7-10.6l-6-6
	C113.7,107.9,117.4,102,117.4,95.2z M25.2,99.7c-1.5,0-2.7-1.2-2.7-2.7V21.4c0-1.5,1.2-2.7,2.7-2.7h75.6c1.5,0,2.7,1.2,2.7,2.7v75.6
	c0,1.5-1.2,2.7-2.7,2.7H25.2z"/>
<ellipse id="shadow" fill="#DADADA" cx="62.9" cy="140.7" rx="30.7" ry="3.6"/>
</svg>
